<?xml version="1.0" encoding="utf-8"?>
<!-- Svg Vector Icons : http://www.onlinewebfonts.com/icon -->
<!DOCTYPE svg PUBLIC "-//W3C//DTD SVG 1.1//EN" "http://www.w3.org/Graphics/SVG/1.1/DTD/svg11.dtd">
<svg version="1.1" xmlns="http://www.w3.org/2000/svg" xmlns:xlink="http://www.w3.org/1999/xlink" x="0px" y="0px" viewBox="0 0 1000 1000" enable-background="new 0 0 1000 1000" xml:space="preserve">
<metadata> Svg Vector Icons : http://www.onlinewebfonts.com/icon </metadata>
<g><path d="M806.3,500c17,0,31.5,6,43.4,17.9c11.9,11.9,17.9,26.4,17.9,43.4v367.5c0,17-6,31.5-17.9,43.4C837.7,984,823.3,990,806.3,990H193.8c-17,0-31.5-6-43.4-17.9c-11.9-11.9-17.9-26.4-17.9-43.4V561.3c0-17,6-31.5,17.9-43.4c11.9-11.9,26.4-17.9,43.4-17.9h20.4V295.8c0-78.7,28-146,83.9-201.9C354,38,421.3,10,500,10c78.7,0,146,28,201.9,83.9c55.9,55.9,83.9,123.2,83.9,201.9c0,11.1-4,20.6-12.1,28.7c-8.1,8.1-17.7,12.1-28.7,12.1h-40.8c-11.1,0-20.6-4-28.7-12.1c-8.1-8.1-12.1-17.7-12.1-28.7c0-45.1-16-83.6-47.9-115.5c-31.9-31.9-70.4-47.9-115.5-47.9c-45.1,0-83.6,16-115.5,47.9s-47.9,70.4-47.9,115.5V500H806.3L806.3,500z"/></g>
</svg>