<?xml version="1.0" encoding="utf-8"?>
<!-- Generator: Adobe Illustrator 15.0.0, SVG Export Plug-In . SVG Version: 6.00 Build 0)  -->
<!DOCTYPE svg PUBLIC "-//W3C//DTD SVG 1.1//EN" "http://www.w3.org/Graphics/SVG/1.1/DTD/svg11.dtd">
<svg version="1.1" id="Layer_1" xmlns="http://www.w3.org/2000/svg" xmlns:xlink="http://www.w3.org/1999/xlink" x="0px" y="0px"
	 width="500px" height="500px" viewBox="0 0 500 500" enable-background="new 0 0 500 500" xml:space="preserve">
<g>
	<path d="M249.702,73.757C152.685,73.757,64.662,112.534,0,175.539L63.439,239.5c50.366-48.823,116.289-75.651,186.263-75.651
		c70.057,0,136.049,26.892,186.438,75.824L500,176.125C435.284,112.777,347.02,73.757,249.702,73.757z"/>
	<path d="M92.053,268.351l63.51,64.034c25.095-23.343,58.06-37.555,94.139-37.555c35.866,0,68.647,14.051,93.686,37.143
		l63.948-63.638c-41.41-39.467-96.783-63.595-157.634-63.595C188.846,204.74,133.466,228.875,92.053,268.351z"/>
	<path d="M186.248,363.324l62.41,62.919l63.834-63.522c-17.072-14.87-38.943-23.803-62.79-23.803
		C225.543,338.918,203.417,348.098,186.248,363.324z"/>
</g>
</svg>
