<svg width="580" height="400" xmlns="http://www.w3.org/2000/svg">
 <!-- Created with Method Draw - http://github.com/duopixel/Method-Draw/ -->

 <g>
  <title>background</title>
  <rect fill="#fff" id="canvas_background" height="402" width="582" y="-1" x="-1"/>
  <g display="none" overflow="visible" y="0" x="0" height="100%" width="100%" id="canvasGrid">
   <rect fill="url(#gridpattern)" stroke-width="0" y="0" x="0" height="100%" width="100%"/>
  </g>
 </g>
 <g>
  <title>Layer 1</title>
  <g stroke="null" id="svg_9">
   <path fill="#BBBBBB" stroke="null" id="svg_6" d="m290.245898,5.053451l0,0c-98.201079,0 -191.363055,31.98588 -262.893753,89.966975l-12.536308,10.162738l12.167593,10.483667l39.698309,34.23238l11.430163,9.841809l11.798878,-9.413905c54.692716,-43.753261 125.731795,-67.92988 200.089308,-67.92988c74.357513,0 145.519497,24.176619 200.089308,67.92988l11.798878,9.413905l11.430163,-9.841809l39.698309,-34.23238l12.167593,-10.483667l-12.536308,-10.162738c-71.284889,-57.981094 -164.569769,-89.966975 -262.402133,-89.966975z"/>
   <path stroke="null" id="svg_7" d="m459.571011,196.464078c-46.899275,-36.680298 -107.457359,-56.849237 -170.553806,-56.849237l-0.120874,0l-0.362623,0l-10.274326,0l-0.120874,0.209005c-59.470214,2.090045 -116.039443,22.04998 -160.27948,56.640232l-12.691814,9.927716l12.208316,10.450227l39.525935,33.858737l10.999572,9.405205l11.603944,-8.778191c30.581228,-23.199505 69.381917,-36.053285 109.149601,-36.053285c40.009433,0 78.810121,12.85378 109.391349,36.053285l11.603944,8.778191l10.999572,-9.405205l39.525935,-33.858737l12.208316,-10.450227l-12.812688,-9.927716z"/>
   <path stroke="null" id="svg_8" d="m287.785837,393.036624l11.122074,-11.006219l61.171407,-60.476277l12.280623,-12.164768l-13.439173,-11.006219c-17.84166,-13.207463 -37.537,-23.170987 -71.250786,-23.170987c-33.597932,0 -52.018867,10.890364 -71.250786,23.170987l-13.323318,11.006219l12.280623,12.164768l61.171407,60.476277l11.237929,11.006219z"/>
  </g>
 </g>
</svg>